<?xml version="1.0" standalone="no"?>
<!DOCTYPE svg PUBLIC "-//W3C//DTD SVG 20010904//EN"
 "http://www.w3.org/TR/2001/REC-SVG-20010904/DTD/svg10.dtd">
<svg version="1.0" xmlns="http://www.w3.org/2000/svg"
 width="500.000000pt" height="500.000000pt" viewBox="0 0 500.000000 500.000000"
 preserveAspectRatio="xMidYMid meet">
<metadata>
Created by potrace 1.14, written by Peter Selinger 2001-2017
</metadata>
<g transform="translate(0.000000,500.000000) scale(0.100000,-0.100000)"
fill="#000000" stroke="none">
<path d="M0 2500 l0 -2500 1732 2 1733 3 0 2497 0 2498 -1732 0 -1733 0 0
-2500z m2380 1008 c0 -10 -7 -21 -16 -25 -19 -7 -64 34 -57 52 13 35 73 12 73
-27z m204 39 c18 -13 18 -15 1 -41 -12 -18 -25 -26 -39 -24 -27 4 -32 34 -10
59 20 23 25 23 48 6z m214 -69 c7 -7 12 -22 12 -34 0 -29 -62 -53 -85 -34 -22
18 -18 47 7 64 27 19 50 20 66 4z m-617 -8 c23 -13 25 -43 4 -60 -21 -17 -79
-1 -83 23 -8 39 37 59 79 37z m116 -36 c-3 -4 -14 -3 -24 0 -15 6 -15 8 -3 16
16 10 39 -4 27 -16z m348 17 c3 -5 1 -13 -5 -16 -15 -9 -43 3 -35 15 8 13 32
13 40 1z m-75 -45 c0 -2 -11 -13 -26 -27 -19 -18 -24 -19 -20 -6 4 9 8 24 11
32 2 8 11 12 20 9 8 -3 15 -7 15 -8z m-186 -32 c5 -14 4 -15 -9 -4 -17 14 -19
20 -6 20 5 0 12 -7 15 -16z m441 6 c4 -6 -13 -10 -44 -10 -27 0 -53 5 -56 10
-4 6 13 10 44 10 27 0 53 -4 56 -10z m300 -31 c38 -6 73 -13 77 -17 8 -8 28
-163 22 -173 -3 -6 -273 -99 -287 -99 -3 0 -8 38 -12 85 -4 47 -8 85 -9 85 -7
0 -124 22 -136 25 -21 7 -25 85 -5 85 8 0 17 -11 21 -25 3 -14 10 -25 16 -25
17 0 63 28 87 54 22 23 28 25 90 20 36 -3 97 -10 136 -15z m-875 -14 c11 -13
6 -15 -36 -15 -48 1 -48 1 -24 15 32 18 45 18 60 0z m-106 -1 c11 -4 13 -11 5
-31 -5 -13 -9 -26 -9 -28 0 -2 27 -14 60 -26 l61 -22 -98 -37 c-54 -21 -110
-42 -124 -48 l-25 -10 9 -82 c5 -45 7 -83 5 -86 -8 -7 -283 27 -293 37 -11 11
-26 161 -16 171 14 15 352 126 371 121 14 -4 21 1 26 21 7 29 6 28 28 20z
m334 -61 c-10 -2 -28 -2 -40 0 -13 2 -5 4 17 4 22 1 32 -1 23 -4z m208 -65
l113 -12 6 -55 c3 -31 8 -70 11 -88 6 -38 11 -35 -196 -106 -124 -42 -139 -45
-190 -37 -30 5 -100 14 -155 20 -55 7 -103 15 -106 18 -4 4 -9 45 -12 92 l-6
85 142 47 c159 53 196 57 393 36z m-455 -454 c52 -19 105 -39 119 -44 14 -4
68 -25 120 -45 52 -20 141 -54 197 -75 96 -36 120 -52 368 -237 175 -131 264
-203 262 -213 -4 -16 -79 -134 -319 -500 -52 -80 -112 -173 -133 -207 -21 -35
-43 -67 -49 -72 -8 -7 -60 6 -154 36 l-142 45 22 37 c12 20 103 167 202 326
205 331 249 405 244 410 -1 1 -20 8 -41 13 l-38 11 -44 -60 c-54 -73 -141
-211 -249 -394 -46 -78 -108 -180 -139 -227 l-56 -87 -171 59 c-94 32 -178 64
-187 72 -9 7 -47 49 -84 92 l-68 80 37 65 c20 36 116 203 215 370 98 167 183
315 188 329 8 20 5 30 -12 49 -13 12 -28 23 -34 23 -9 0 -113 -175 -414 -697
-20 -35 -39 -62 -42 -60 -9 3 -139 151 -139 158 0 3 52 97 115 209 63 111 115
204 115 205 0 2 35 66 79 142 43 76 88 157 100 181 12 23 25 42 30 42 4 0 51
-16 102 -36z"/>
</g>
</svg>
